. 
 
http://www.torrenting.com          :     Once & For all ;)


               www . Torrenting . Com 

(((((((((((((= Enjoy No RAR releases =))))))))))))))))))))


...................................NFO:....................................

.[img]http://img46.imageshack.us/img46/1339/dangrous.png[/img]


[color=blue][size=5][b]A.Dangerous.Method.2011.BDRip.XVID.AC3.HQ.Hive-CM8[/b][/size][/color]


[b] Thx Hive

CM8 Doing it right the first time :D

Source: Bluray

Video: 720x384 @bitrate 1700 2pass
Audio: English DTS to AC3 5.1 @384
Sample: yes included 
Subs: yes included[/b]


[url]http://www.imdb.com/title/tt1571222/[/url]


General
Complete name                  : A.Dangerous.Method.2011.BDRip.XVID.AC3.HQ.Hive-CM8.avi
Format                         : AVI
Format/Info                    : Audio Video Interleave
File size                      : 1.45 GiB
Duration                       : 1h 39mn
Overall bit rate               : 2 092 Kbps
Writing application            : Nandub v1.0rc2
Writing library                : Nandub build 1853/release

Video
ID                             : 0
Format                         : MPEG-4 Visual
Format profile                 : Advanced Simple@L5
Format settings, BVOP          : 2
Format settings, QPel          : Yes
Format settings, GMC           : No warppoints
Format settings, Matrix        : Default (H.263)
Muxing mode                    : Packed bitstream
Codec ID                       : XVID
Codec ID/Hint                  : XviD
Duration                       : 1h 39mn
Bit rate                       : 1 699 Kbps
Width                          : 720 pixels
Height                         : 384 pixels
Display aspect ratio           : 1.850
Frame rate                     : 24.000 fps
Color space                    : YUV
Chroma subsampling             : 4:2:0
Bit depth                      : 8 bits
Scan type                      : Progressive
Compression mode               : Lossy
Bits/(Pixel*Frame)             : 0.256
Stream size                    : 1.18 GiB (81%)
Writing library                : XviD 1.2.1 (UTC 2008-12-04)

Audio
ID                             : 1
Format                         : AC-3
Format/Info                    : Audio Coding 3
Mode extension                 : CM (complete main)
Codec ID                       : 2000
Duration                       : 1h 39mn
Bit rate mode                  : Constant
Bit rate                       : 384 Kbps
Channel(s)                     : 6 channels
Channel positions              : Front: L C R, Side: L R, LFE
Sampling rate                  : 48.0 KHz
Bit depth                      : 16 bits
Compression mode               : Lossy
Delay relative to video        : 14ms
Stream size                    : 273 MiB (18%)
Alignment                      : Split accross interleaves
Interleave, duration           : 42 ms (1.00 video frame)
Interleave, preload duration   : 500 ms



A look at how the intense relationship between Carl Jung and Sigmund Freud gives birth to psychoanalysis. 

 
Keira Knightley	... 	Sabina Spielrein
Viggo Mortensen	... 	Sigmund Freud
Michael Fassbender ... 	Carl Jung
Vincent Cassel	... 	Otto Gross
Sarah Gadon	... 	Emma Jung


[img]http://img846.imageshack.us/img846/3254/56765996.png[/img]
[img]http://img198.imageshack.us/img198/5359/dmdm.png[/img]
[img]http://img811.imageshack.us/img811/2671/dmdmdm.png[/img]
[img]http://img19.imageshack.us/img19/4420/dmdmdmdm.png[/img]
[img]http://img696.imageshack.us/img696/8941/dmdmdmdmdm.png[/img]
[img]http://img546.imageshack.us/img546/8818/dmdmdmdmdmdm.png[/img]





Greetz

ViSiON,SPK,SceneLovers,PRESTiGE,SANTi,3LT0N,YanKeeS,MAGNET,THC,T0XiC,LKRG,Feel-Free,FLAWL3SS,
WBZ,BHRG,SiC,26K,NOVA,D2U,SeToNeUp,TED,COPYxRIGHT,jtr,Rapeseed,SAFC,goldadvance,KaN1vE,Unevano,Pinnz,Wayne
Mr Hive,and most P2P groups
Great Work Guys :D


LOOKING FOR ANYTHING YOU WANT TO LOOK AND SOUND BETTER

CM8@hushmail.com